<svg width="5" height="16" viewBox="0 0 5 16" fill="none" xmlns="http://www.w3.org/2000/svg">
<path d="M4.05996 13.7639C4.05996 14.8018 3.22957 15.6529 2.17086 15.6529C1.11215 15.6529 0.281799 14.8018 0.281799 13.7639C0.281799 12.7259 1.11219 11.8748 2.17086 11.8748C3.22957 11.8748 4.05996 12.7259 4.05996 13.7639ZM2.67356 9.98569H1.64926C1.1861 9.98569 0.804846 9.62148 0.783674 9.15882L0.447815 1.82011C0.425237 1.32652 0.819299 0.914017 1.3134 0.914017H3.02621C3.5211 0.914017 3.91547 1.32781 3.89172 1.8221L3.53906 9.16081C3.51688 9.62265 3.13594 9.98569 2.67356 9.98569Z" fill="#C4CDDF"/>
</svg>
