<svg width="20" height="18" viewBox="0 0 20 18" fill="none" xmlns="http://www.w3.org/2000/svg">
<path d="M9.23864 2.86885L9.99999 3.76291L10.7613 2.86885C11.6242 1.85565 12.9524 1.21411 14.32 1.21411C16.7245 1.21411 18.6 3.0896 18.6 5.49411C18.6 6.98003 17.9407 8.40638 16.5759 10.075C15.1996 11.7576 13.2124 13.5623 10.7203 15.8221L10.7188 15.8234L9.99744 16.4801L9.28052 15.8324C9.28022 15.8322 9.27992 15.8319 9.27962 15.8316C6.7877 13.5671 4.80062 11.7603 3.42426 10.0764C2.05924 8.40644 1.39999 6.98004 1.39999 5.49411C1.39999 3.0896 3.27548 1.21411 5.67999 1.21411C7.04761 1.21411 8.37583 1.85565 9.23864 2.86885Z" fill="#C4CDDF" stroke="#C4CDDF" stroke-width="2"/>
</svg>
