<svg width="13" height="13" viewBox="0 0 13 13" fill="none" xmlns="http://www.w3.org/2000/svg">
<path fill-rule="evenodd" clip-rule="evenodd" d="M6.14127 0.939932C6.46313 0.617846 6.98518 0.617753 7.30715 0.939726L11.3269 4.95948C11.6487 5.28127 11.6489 5.80295 11.3273 6.12497C11.1064 6.34619 10.7794 6.42342 10.4828 6.32439L10.3581 6.28275L6.05973 2.007C6.04085 1.98822 6.02084 1.97125 5.99994 1.95611L5.94228 1.78299C5.8437 1.48696 5.92072 1.16064 6.14127 0.939932ZM5.33165 2.6917L2.47438 5.54852L6.71732 9.79147L7.66678 8.84202L10.9661 12.142C11.2264 12.4023 11.6485 12.4023 11.9088 12.142C12.1691 11.8817 12.1691 11.4597 11.9088 11.1994L8.60878 7.89935L9.58506 6.92425L5.35449 2.71597C5.34655 2.70807 5.33894 2.69998 5.33165 2.6917ZM1.67804 6.16639L6.10004 10.5884L6.13579 10.7314C6.20837 11.0217 6.12325 11.3288 5.91159 11.5403C5.579 11.8727 5.03998 11.8726 4.70751 11.5401L0.72648 7.55905C0.393834 7.22641 0.39393 6.68705 0.726693 6.35453C0.938118 6.14325 1.24483 6.05828 1.53483 6.13066L1.67804 6.16639Z" fill="#4A80AA"/>
</svg>
