<svg width="14" height="13" viewBox="0 0 14 13" fill="none" xmlns="http://www.w3.org/2000/svg">
<path d="M6.61932 2.26404L7 2.71107L7.38068 2.26404C8.05188 1.47584 9.08339 0.976868 10.15 0.976868C12.0299 0.976868 13.5 2.44701 13.5 4.32687C13.5 5.48563 12.9834 6.57611 11.9724 7.81218C10.9556 9.05528 9.49169 10.3839 7.67913 12.0275L7.67841 12.0281C7.2966 12.3757 6.70096 12.3775 6.32058 12.0342C4.50822 10.3873 3.04452 9.05712 2.02776 7.81319C1.01662 6.57613 0.5 5.48563 0.5 4.32687C0.5 2.44701 1.97014 0.976868 3.85 0.976868C4.91661 0.976868 5.94812 1.47584 6.61932 2.26404Z" fill="white" stroke="#767D86"/>
</svg>
