<svg width="22" height="13" viewBox="0 0 22 13" fill="none" xmlns="http://www.w3.org/2000/svg">
<path fill-rule="evenodd" clip-rule="evenodd" d="M20.7325 1.7551C20.8736 1.291 20.7325 0.949295 20.0568 0.949295H17.8255C17.2577 0.949295 16.9959 1.24425 16.8539 1.5698C16.8539 1.5698 15.7192 4.2864 14.1118 6.05099C13.5917 6.5627 13.3553 6.72505 13.0715 6.72505C12.9295 6.72505 12.7161 6.5627 12.7161 6.09775V1.7551C12.7161 1.19749 12.5597 0.949295 12.0871 0.949295H8.57835C8.2239 0.949295 8.01055 1.20769 8.01055 1.45335C8.01055 1.98119 8.81465 2.1036 8.8971 3.5894V6.8177C8.8971 7.52575 8.76705 7.65409 8.48315 7.65409C7.72665 7.65409 5.8864 4.92475 4.79415 1.80184C4.5825 1.19409 4.3683 0.949295 3.79795 0.949295H1.565C0.927499 0.949295 0.799999 1.24425 0.799999 1.5698C0.799999 2.1495 1.5565 5.0293 4.32325 8.83815C6.16775 11.4391 8.7645 12.8493 11.13 12.8493C12.5487 12.8493 12.7238 12.5365 12.7238 11.9967V10.0307C12.7238 9.40425 12.8581 9.27929 13.3077 9.27929C13.6392 9.27929 14.2062 9.44249 15.5305 10.6962C17.0435 12.1829 17.2926 12.8493 18.1443 12.8493H20.3755C21.013 12.8493 21.3326 12.5365 21.149 11.9177C20.9467 11.3023 20.2242 10.4089 19.2663 9.349C18.746 8.7455 17.9657 8.09525 17.7286 7.7697C17.3979 7.35235 17.4923 7.16619 17.7286 6.79474C17.7286 6.79474 20.4486 3.03264 20.7316 1.7551H20.7325Z" fill="white"/>
</svg>
