<svg width="23" height="16" viewBox="0 0 23 16" fill="none" xmlns="http://www.w3.org/2000/svg">
<path d="M19.144 12.043C16.9021 14.2056 14.3552 15.3534 11.3504 15.3534C8.34567 15.3534 5.79868 14.2056 3.54513 12.055C3.13432 12.7195 2.74699 13.3357 2.3714 13.964C2.12492 14.3868 1.78454 14.6164 1.30331 14.556C0.587334 14.4714 0.164792 13.7223 0.528647 13.082C1.44415 11.4872 2.39487 9.91656 3.36907 8.37008C3.67424 7.88681 4.2611 7.81432 4.71885 8.12845C5.1414 8.40633 5.34093 9.03458 5.02402 9.51786C4.63669 10.1099 4.87144 10.424 5.28224 10.8227C8.69779 14.1573 14.273 14.0727 17.5829 10.6294C17.8763 10.3273 17.9585 10.0978 17.7238 9.69909C17.3364 9.03458 17.4773 8.41841 17.982 8.11636C18.5336 7.77807 19.0618 7.97138 19.4843 8.67213C20.3177 10.0374 21.151 11.4026 21.9726 12.7679C22.3952 13.4807 22.3365 14.0727 21.8083 14.411C21.2567 14.7735 20.6815 14.5802 20.2473 13.8794C20.1299 13.6982 20.0125 13.5049 19.9069 13.3236C19.6721 12.9129 19.4374 12.5262 19.144 12.043Z" fill="white"/>
<path d="M8.7925 2.23292C8.7925 3.28404 8.08826 4.00895 7.06712 3.99687C6.05771 3.98479 5.34174 3.2478 5.35347 2.20876C5.35347 1.24221 6.12813 0.444809 7.06712 0.444809C8.05305 0.444809 8.7925 1.20597 8.7925 2.23292Z" fill="white"/>
<path d="M13.8972 2.245C13.8972 1.21805 14.6249 0.444809 15.6226 0.444809C16.585 0.444809 17.3597 1.25429 17.348 2.25709C17.3362 3.25988 16.6202 3.99687 15.6461 3.99687C14.6132 4.00895 13.9089 3.29612 13.8972 2.245Z" fill="white"/>
</svg>
