<svg width="10" height="15" viewBox="0 0 10 15" fill="none" xmlns="http://www.w3.org/2000/svg">
<path d="M9.66394 13.9609V11.6194C8.90574 12.1271 8.16794 12.3787 7.45167 12.3787C7.11394 12.3787 6.73654 12.2722 6.31381 12.0648C6.06107 11.8937 5.91261 11.7056 5.86841 11.4948C5.74374 11.2409 5.66667 10.6924 5.66667 9.84688V6.11708H9.06668V3.85042H5.66667V0.0469513H3.65841C3.48954 0.933218 3.32067 1.56335 3.15067 1.94302C2.94214 2.40768 2.60441 2.82928 2.14087 3.20782C1.71058 3.56964 1.21673 3.84827 0.68454 4.02948V6.11708H2.26667V11.2409C2.26667 11.8302 2.34941 12.3334 2.51941 12.7561C2.64521 13.0939 2.89794 13.4305 3.27987 13.7682C3.57341 14.0651 3.99501 14.3167 4.54354 14.5275C5.21787 14.6975 5.80607 14.7803 6.31381 14.7803C6.90314 14.7803 7.45167 14.7168 7.95714 14.591C8.55274 14.4618 9.12727 14.2497 9.66394 13.9609Z" fill="white"/>
</svg>
