<svg width="20" height="16" viewBox="0 0 20 16" fill="none" xmlns="http://www.w3.org/2000/svg">
<path d="M19.9501 2.11039C19.2404 2.42489 18.4779 2.63739 17.6764 2.73344C18.5034 2.23856 19.1222 1.45969 19.4172 0.542139C18.6401 1.00368 17.7897 1.32855 16.9029 1.50264C16.3065 0.865874 15.5166 0.443816 14.6557 0.301992C13.7949 0.160167 12.9113 0.306512 12.1422 0.718304C11.3731 1.1301 10.7614 1.7843 10.4022 2.57934C10.043 3.37438 9.95626 4.26578 10.1556 5.11514C8.58109 5.03609 7.04084 4.62686 5.63477 3.91401C4.2287 3.20116 2.98822 2.20063 1.99386 0.977339C1.65386 1.56384 1.45836 2.24384 1.45836 2.96804C1.45798 3.61999 1.61853 4.26195 1.92576 4.83696C2.23298 5.41198 2.6774 5.90227 3.21956 6.26434C2.59079 6.24433 1.9759 6.07444 1.42606 5.76879V5.81979C1.426 6.73417 1.74229 7.62041 2.32126 8.32814C2.90024 9.03586 3.70624 9.52148 4.60251 9.70259C4.01923 9.86045 3.4077 9.8837 2.81411 9.77059C3.06698 10.5574 3.55956 11.2454 4.22287 11.7383C4.88619 12.2312 5.68704 12.5043 6.51331 12.5195C5.11067 13.6206 3.37841 14.2179 1.59521 14.2152C1.27933 14.2153 0.963724 14.1969 0.650009 14.16C2.46006 15.3238 4.5671 15.9414 6.71901 15.939C14.0035 15.939 17.9858 9.90574 17.9858 4.67314C17.9858 4.50314 17.9815 4.33144 17.9739 4.16144C18.7485 3.60127 19.4171 2.9076 19.9484 2.11294L19.9501 2.11039Z" fill="white"/>
</svg>
