<svg width="19" height="26" viewBox="0 0 19 26" fill="none" xmlns="http://www.w3.org/2000/svg">
<g filter="url(#filter0_d)">
<path d="M9.46336 9.18914C7.06211 9.18914 5.06631 7.19504 5.06631 4.83544C5.06631 2.39424 7.06211 0.399292 9.46421 0.399292C11.9479 0.399292 13.8613 2.39339 13.8613 4.83544C13.857 5.99403 13.3929 7.10353 12.5709 7.92007C11.7489 8.73661 10.6364 9.19338 9.47781 9.18999L9.46336 9.18914ZM9.46336 2.96374C8.44676 2.96374 7.67326 3.81799 7.67326 4.83629C7.67326 5.85289 8.44676 6.62639 9.46421 6.62639C10.5225 6.62639 11.2552 5.85289 11.2552 4.83629C11.256 3.81714 10.5225 2.96374 9.46336 2.96374ZM11.2144 12.8118L13.6989 15.2131C14.1877 15.7409 14.1877 16.5144 13.6989 17.0032C13.1702 17.531 12.3551 17.531 11.9479 17.0032L9.46421 14.5611L7.06211 17.0032C6.81816 17.2471 6.49176 17.3687 6.12456 17.3687C5.83981 17.3687 5.51426 17.2463 5.22866 17.0032C4.73991 16.5144 4.73991 15.7409 5.22866 15.2122L7.75316 12.811C6.84148 12.541 5.96691 12.1587 5.14961 11.6728C4.53846 11.3473 4.41691 10.5338 4.74246 9.92269C5.14961 9.31239 5.88231 9.15004 6.53426 9.55719C7.41707 10.0959 8.43127 10.381 9.46548 10.381C10.4997 10.381 11.5139 10.0959 12.3967 9.55719C13.0487 9.15004 13.8213 9.31239 14.1877 9.92269C14.5549 10.5338 14.3908 11.3464 13.8205 11.6728C13.0478 12.1616 12.1519 12.5279 11.2152 12.8127L11.2144 12.8118Z" fill="white"/>
</g>
<defs>
<filter id="filter0_d" x="0.566673" y="0.399292" width="17.8168" height="24.9998" filterUnits="userSpaceOnUse" color-interpolation-filters="sRGB">
<feFlood flood-opacity="0" result="BackgroundImageFix"/>
<feColorMatrix in="SourceAlpha" type="matrix" values="0 0 0 0 0 0 0 0 0 0 0 0 0 0 0 0 0 0 127 0" result="hardAlpha"/>
<feOffset dy="4"/>
<feGaussianBlur stdDeviation="2"/>
<feComposite in2="hardAlpha" operator="out"/>
<feColorMatrix type="matrix" values="0 0 0 0 0 0 0 0 0 0 0 0 0 0 0 0 0 0 0.25 0"/>
<feBlend mode="normal" in2="BackgroundImageFix" result="effect1_dropShadow"/>
<feBlend mode="normal" in="SourceGraphic" in2="effect1_dropShadow" result="shape"/>
</filter>
</defs>
</svg>
