<svg width="26" height="23" viewBox="0 0 26 23" fill="none" xmlns="http://www.w3.org/2000/svg">
<path d="M0.25 3.33459C0.25 2.52237 0.572655 1.74341 1.14699 1.16908C1.72132 0.59475 2.50027 0.272095 3.3125 0.272095H21.6875C22.4997 0.272095 23.2787 0.59475 23.853 1.16908C24.4273 1.74341 24.75 2.52237 24.75 3.33459V7.43222C24.5906 7.35076 24.4264 7.27916 24.2582 7.21784L24.2407 7.21084L24.0351 7.14259L23.3902 6.94834C23.2623 6.9096 23.1319 6.8792 23 6.85734V3.33459C23 2.9865 22.8617 2.65266 22.6156 2.40652C22.3694 2.16038 22.0356 2.02209 21.6875 2.02209H3.3125C2.9644 2.02209 2.63056 2.16038 2.38442 2.40652C2.13828 2.65266 2 2.9865 2 3.33459V14.7096C2 15.0577 2.13828 15.3915 2.38442 15.6377C2.63056 15.8838 2.9644 16.0221 3.3125 16.0221H7.25L15.636 16.1043L14.432 17.7721H3.3125C2.50027 17.7721 1.72132 17.4494 1.14699 16.8751C0.572655 16.3008 0.25 15.5218 0.25 14.7096V3.33459ZM20.9753 9.03259C21.169 8.68274 21.4767 8.40979 21.8472 8.25919C22.2176 8.10858 22.6285 8.0894 23.0114 8.20484L23.6387 8.39384L23.8068 8.44984C24.3264 8.63998 24.7849 8.96737 25.1334 9.39722C25.4819 9.82707 25.7074 10.3433 25.786 10.8911C26.0459 12.7006 25.4649 14.8163 24.064 17.2427C22.6666 19.663 21.1284 21.2222 19.4353 21.9047C18.8912 22.124 18.2957 22.1824 17.7195 22.073C17.1432 21.9637 16.6105 21.6912 16.1846 21.2878L15.7104 20.8381L15.6036 20.7278C15.3399 20.4303 15.1853 20.0517 15.1655 19.6546C15.1456 19.2575 15.2615 18.8654 15.4943 18.543L16.6816 16.898L16.7613 16.7982C16.928 16.6093 17.1457 16.4723 17.3882 16.4037C17.6307 16.3351 17.8878 16.3378 18.1289 16.4115L19.9235 16.9601L19.9699 16.9688H20.0075C20.2219 16.9452 20.6576 16.5121 21.1931 15.5846C21.7881 14.5538 21.9106 13.951 21.747 13.7952L20.8344 12.9447L20.718 12.8283C20.4275 12.5135 20.2359 12.1202 20.1672 11.6974C20.0984 11.2745 20.1555 10.8408 20.3313 10.4501L20.9105 9.16297L20.9753 9.03259Z" fill="white"/>
</svg>
